<svg width="452" height="259" viewBox="0 0 452 259" fill="none" xmlns="http://www.w3.org/2000/svg">
<g filter="url(#filter0_d_2_95)">
<path d="M80 64.0283H382V163.028H80V64.0283Z" fill="white" fill-opacity="0.8" shape-rendering="crispEdges"/>
</g>
<path d="M135.06 98.7482C135.605 97.4359 137.464 97.4359 138.01 98.7482L141.126 106.239C141.356 106.793 141.876 107.171 142.473 107.218L150.561 107.867C151.978 107.98 152.552 109.748 151.473 110.673L145.311 115.951C144.856 116.341 144.657 116.952 144.796 117.535L146.679 125.427C147.008 126.81 145.504 127.902 144.292 127.161L137.368 122.932C136.856 122.62 136.213 122.62 135.702 122.932L128.778 127.161C127.565 127.902 126.061 126.81 126.391 125.427L128.274 117.535C128.413 116.952 128.214 116.341 127.759 115.951L121.597 110.673C120.518 109.748 121.092 107.98 122.509 107.867L130.596 107.218C131.193 107.171 131.714 106.793 131.944 106.239L135.06 98.7482Z" fill="#F3AC41"/>
<path d="M183.792 98.7482C184.338 97.4359 186.197 97.4359 186.743 98.7482L189.858 106.239C190.088 106.793 190.609 107.171 191.206 107.218L199.293 107.867C200.71 107.98 201.284 109.748 200.205 110.673L194.043 115.951C193.588 116.341 193.389 116.952 193.529 117.535L195.411 125.427C195.741 126.81 194.237 127.902 193.024 127.161L186.1 122.932C185.589 122.62 184.946 122.62 184.434 122.932L177.51 127.161C176.298 127.902 174.794 126.81 175.123 125.427L177.006 117.535C177.145 116.952 176.946 116.341 176.491 115.951L170.329 110.673C169.25 109.748 169.825 107.98 171.241 107.867L179.329 107.218C179.926 107.171 180.446 106.793 180.676 106.239L183.792 98.7482Z" fill="#F3AC41"/>
<path d="M232.525 98.7482C233.071 97.4359 234.929 97.4359 235.475 98.7482L238.591 106.239C238.821 106.793 239.341 107.171 239.939 107.218L248.026 107.867C249.443 107.98 250.017 109.748 248.938 110.673L242.776 115.951C242.321 116.341 242.122 116.952 242.261 117.535L244.144 125.427C244.474 126.81 242.97 127.902 241.757 127.161L234.833 122.932C234.322 122.62 233.678 122.62 233.167 122.932L226.243 127.161C225.03 127.902 223.526 126.81 223.856 125.427L225.739 117.535C225.878 116.952 225.679 116.341 225.224 115.951L219.062 110.673C217.983 109.748 218.557 107.98 219.974 107.867L228.061 107.218C228.659 107.171 229.179 106.793 229.409 106.239L232.525 98.7482Z" fill="#F3AC41"/>
<path d="M281.258 98.7482C281.803 97.4359 283.662 97.4359 284.208 98.7482L287.324 106.239C287.554 106.793 288.074 107.171 288.671 107.218L296.759 107.867C298.175 107.98 298.75 109.748 297.671 110.673L291.509 115.951C291.054 116.341 290.855 116.952 290.994 117.535L292.877 125.427C293.206 126.81 291.702 127.902 290.49 127.161L283.566 122.932C283.054 122.62 282.411 122.62 281.9 122.932L274.976 127.161C273.763 127.902 272.259 126.81 272.589 125.427L274.471 117.535C274.611 116.952 274.412 116.341 273.957 115.951L267.795 110.673C266.716 109.748 267.29 107.98 268.707 107.867L276.794 107.218C277.391 107.171 277.912 106.793 278.142 106.239L281.258 98.7482Z" fill="#F3AC41"/>
<path d="M329.99 98.7482C330.536 97.4359 332.395 97.4359 332.941 98.7482L336.057 106.239C336.287 106.793 336.807 107.171 337.404 107.218L345.492 107.867C346.908 107.98 347.483 109.748 346.403 110.673L340.242 115.951C339.787 116.341 339.588 116.952 339.727 117.535L341.609 125.427C341.939 126.81 340.435 127.902 339.222 127.161L332.298 122.932C331.787 122.62 331.144 122.62 330.633 122.932L323.709 127.161C322.496 127.902 320.992 126.81 321.322 125.427L323.204 117.535C323.343 116.952 323.145 116.341 322.69 115.951L316.528 110.673C315.448 109.748 316.023 107.98 317.44 107.867L325.527 107.218C326.124 107.171 326.644 106.793 326.875 106.239L329.99 98.7482Z" fill="#F3AC41"/>
<defs>
<filter id="filter0_d_2_95" x="0.110191" y="0.116474" width="461.78" height="258.78" filterUnits="userSpaceOnUse" color-interpolation-filters="sRGB">
<feFlood flood-opacity="0" result="BackgroundImageFix"/>
<feColorMatrix in="SourceAlpha" type="matrix" values="0 0 0 0 0 0 0 0 0 0 0 0 0 0 0 0 0 0 127 0" result="hardAlpha"/>
<feOffset dy="15.978"/>
<feGaussianBlur stdDeviation="39.9449"/>
<feComposite in2="hardAlpha" operator="out"/>
<feColorMatrix type="matrix" values="0 0 0 0 0.483615 0 0 0 0 0.483615 0 0 0 0 0.483615 0 0 0 0.1 0"/>
<feBlend mode="normal" in2="BackgroundImageFix" result="effect1_dropShadow_2_95"/>
<feBlend mode="normal" in="SourceGraphic" in2="effect1_dropShadow_2_95" result="shape"/>
</filter>
</defs>
</svg>
