<svg width="51" height="50" viewBox="0 0 51 50" fill="none" xmlns="http://www.w3.org/2000/svg">
<path d="M24.6239 0H25.6448C31.2193 0 36.5993 2.12283 41.7849 6.3685C47.2945 11.9592 50.0493 17.8253 50.0493 23.9669V26.3491C50.0493 29.9141 48.6719 34.1031 45.9171 38.9159C42.5141 43.7773 37.8795 47.1317 32.0133 48.9791C29.2909 49.6597 27.0223 50 25.2073 50H25.0615C18.2716 50 12.2029 47.3424 6.85534 42.0272C2.31799 36.8417 0.0493164 31.17 0.0493164 25.0122C0.0493164 18.433 2.61778 12.4129 7.75471 6.95187C13.1023 2.31729 18.7254 0 24.6239 0ZM26.1067 20.7098V21.9008C26.1067 22.0953 26.0014 22.1925 25.7907 22.1925C22.6956 21.7712 20.038 20.6855 17.8179 18.9353L15.7518 17.0151H15.5816C15.5816 17.1771 15.3872 17.5741 14.9983 18.2061V19.9806C15.1279 20.9853 15.8166 22.1196 17.0644 23.3836V23.5294C16.3838 23.5294 15.6951 23.335 14.9983 22.946V23.0919C14.9983 24.9878 16.2298 26.6164 18.693 27.9776L18.4013 28.1235H17.6721L16.9185 27.9776V28.2693C18.0529 30.3435 19.487 31.3807 21.2209 31.3807V31.8182C19.2763 33.0011 17.348 33.5926 15.4358 33.5926H14.5607V33.8843C17.348 35.1645 19.7625 35.8046 21.8043 35.8046C26.0824 35.8046 29.7285 34.0788 32.7426 30.6271C34.914 27.613 35.9997 24.7529 35.9997 22.0467V21.0258C37.5716 19.5187 38.3656 18.6761 38.3818 18.4978V18.352C37.8147 18.6437 37.0206 18.8948 35.9997 19.1055L35.8539 18.7895C36.7776 18.2547 37.4663 17.5174 37.92 16.5775V16.4317H37.7742C36.3157 17.1285 35.4326 17.4769 35.1247 17.4769H34.6871C33.6014 16.5856 32.6129 16.0914 31.7217 15.9942H30.5306C28.8777 15.9942 27.5489 16.9259 26.5442 18.7895C26.2525 19.2756 26.1067 19.9157 26.1067 20.7098Z" fill="#3CB89A"/>
</svg>
