<svg width="50" height="50" viewBox="0 0 50 50" fill="none" xmlns="http://www.w3.org/2000/svg">
<path d="M24.2495 0H25.7515C31.8884 0 37.7024 2.6082 43.1933 7.82461C47.0531 12.5081 49.1768 16.7474 49.5644 20.5426C49.8551 22.3353 50.0005 23.4738 50.0005 23.9583V26.0174C50.0005 29.3443 48.87 33.1961 46.609 37.5727C43.3144 42.9667 38.6229 46.7135 32.5344 48.813C29.4498 49.6043 27.0354 50 25.2912 50H24.7098C18.3306 50 12.4117 47.4322 6.95301 42.2965C2.31799 37.1609 0.000488281 31.1935 0.000488281 24.3944V24.1037C0.000488281 23.8776 0.0489379 23.6838 0.145837 23.5223C0.145837 23.4092 0.0973875 23.3527 0.000488281 23.3527C0.630333 18.5401 1.91425 14.6479 3.85223 11.6764C6.92071 6.68605 11.6526 3.13307 18.048 1.01744C20.4381 0.339147 22.5053 0 24.2495 0ZM20.858 15.9641L21.0034 20.5426C21.0034 20.688 20.858 20.8414 20.5673 21.0029H18.048V26.1628H20.5673C20.7127 26.1628 20.858 26.3162 21.0034 26.6231V39.3411L21.0761 40.2374H26.3329V26.4777C26.3652 26.2678 26.4621 26.1628 26.6236 26.1628H30.9113C31.1051 26.1628 31.3555 24.5397 31.6623 21.2936V21.0029H26.6236C26.4298 21.0029 26.3329 20.906 26.3329 20.7122V17.1512C26.3329 15.6331 27.2211 14.7933 28.9976 14.6318H31.953V10.1986C31.953 9.90795 30.9194 9.7626 28.8522 9.7626H28.1013C24.6936 9.7626 22.473 11.0384 21.4394 13.5901C21.2456 14.1231 21.0518 14.9144 20.858 15.9641Z" fill="#3CB89A"/>
</svg>
