<svg width="145" height="53" viewBox="0 0 145 53" fill="none" xmlns="http://www.w3.org/2000/svg">
<path d="M82.82 20.5068C83.14 20.6001 83.42 20.7535 83.66 20.9668C83.9 21.1668 84.1333 21.4535 84.36 21.8268L85.8 24.1668L83.64 25.2068L81.7 22.0668C81.3267 21.4535 80.6933 21.1468 79.8 21.1468C78.4267 21.1468 77.2333 20.8535 76.22 20.2668C75.22 19.6801 74.4467 18.8401 73.9 17.7468C73.3533 16.6535 73.08 15.3735 73.08 13.9068C73.08 12.4401 73.3533 11.1668 73.9 10.0868C74.4467 8.99346 75.22 8.15346 76.22 7.5668C77.2333 6.98013 78.4267 6.6868 79.8 6.6868C81.16 6.6868 82.34 6.98013 83.34 7.5668C84.3533 8.15346 85.1333 8.99346 85.68 10.0868C86.2267 11.1668 86.5 12.4401 86.5 13.9068C86.5 15.5068 86.18 16.8801 85.54 18.0268C84.9133 19.1601 84.0067 19.9868 82.82 20.5068ZM79.8 19.0868C81.0933 19.0868 82.1 18.6401 82.82 17.7468C83.5533 16.8535 83.92 15.5735 83.92 13.9068C83.92 12.2401 83.5533 10.9668 82.82 10.0868C82.1 9.19346 81.0933 8.7468 79.8 8.7468C78.4933 8.7468 77.4733 9.19346 76.74 10.0868C76.02 10.9668 75.66 12.2401 75.66 13.9068C75.66 15.5735 76.02 16.8535 76.74 17.7468C77.4733 18.6401 78.4933 19.0868 79.8 19.0868ZM88.8859 20.9668V11.1868H91.3859V20.9668H88.8859ZM88.7459 6.6468H91.5059V9.1068H88.7459V6.6468ZM105.584 10.9468C106.691 10.9468 107.517 11.2801 108.064 11.9468C108.611 12.6001 108.884 13.6068 108.884 14.9668V20.9668H106.384V15.0668C106.384 14.3201 106.257 13.7801 106.004 13.4468C105.751 13.1001 105.344 12.9268 104.784 12.9268C104.117 12.9268 103.597 13.1535 103.224 13.6068C102.851 14.0601 102.664 14.6935 102.664 15.5068V20.9668H100.164V15.0668C100.164 14.3201 100.037 13.7801 99.7841 13.4468C99.5441 13.1001 99.1374 12.9268 98.5641 12.9268C97.9107 12.9268 97.3974 13.1535 97.0241 13.6068C96.6507 14.0601 96.4641 14.6935 96.4641 15.5068V20.9668H93.9641V11.1868H96.4041V12.5668C96.6974 12.0335 97.1041 11.6335 97.6241 11.3668C98.1441 11.0868 98.7374 10.9468 99.4041 10.9468C100.884 10.9468 101.864 11.5601 102.344 12.7868C102.651 12.2135 103.091 11.7668 103.664 11.4468C104.237 11.1135 104.877 10.9468 105.584 10.9468ZM115.625 10.9468C116.998 10.9468 118.018 11.2801 118.685 11.9468C119.352 12.6135 119.685 13.6401 119.685 15.0268V20.9668H117.305V19.4668C117.078 19.9868 116.718 20.3935 116.225 20.6868C115.745 20.9801 115.185 21.1268 114.545 21.1268C113.892 21.1268 113.298 20.9935 112.765 20.7268C112.232 20.4601 111.812 20.0935 111.505 19.6268C111.198 19.1601 111.045 18.6401 111.045 18.0668C111.045 17.3468 111.225 16.7801 111.585 16.3668C111.958 15.9535 112.558 15.6535 113.385 15.4668C114.212 15.2801 115.352 15.1868 116.805 15.1868H117.305V14.7268C117.305 14.0601 117.158 13.5801 116.865 13.2868C116.585 12.9935 116.112 12.8468 115.445 12.8468C114.925 12.8468 114.378 12.9401 113.805 13.1268C113.245 13.3001 112.692 13.5468 112.145 13.8668L111.445 12.1468C111.992 11.8001 112.652 11.5135 113.425 11.2868C114.198 11.0601 114.932 10.9468 115.625 10.9468ZM115.045 19.3268C115.712 19.3268 116.252 19.1068 116.665 18.6668C117.092 18.2135 117.305 17.6335 117.305 16.9268V16.5068H116.945C116.052 16.5068 115.358 16.5468 114.865 16.6268C114.372 16.7068 114.018 16.8468 113.805 17.0468C113.592 17.2468 113.485 17.5201 113.485 17.8668C113.485 18.2935 113.632 18.6468 113.925 18.9268C114.218 19.1935 114.592 19.3268 115.045 19.3268ZM127.906 10.9468C129.079 10.9468 129.952 11.2801 130.526 11.9468C131.099 12.6135 131.386 13.6201 131.386 14.9668V20.9668H128.886V15.1068C128.886 14.3468 128.739 13.7935 128.446 13.4468C128.166 13.1001 127.719 12.9268 127.106 12.9268C126.386 12.9268 125.806 13.1535 125.366 13.6068C124.939 14.0601 124.726 14.6668 124.726 15.4268V20.9668H122.226V11.1868H124.666V12.6468C124.999 12.1001 125.446 11.6801 126.006 11.3868C126.566 11.0935 127.199 10.9468 127.906 10.9468ZM138.385 21.1268C137.385 21.1268 136.505 20.9201 135.745 20.5068C134.998 20.0935 134.418 19.5001 134.005 18.7268C133.592 17.9535 133.385 17.0535 133.385 16.0268C133.385 15.0001 133.592 14.1068 134.005 13.3468C134.418 12.5735 134.998 11.9801 135.745 11.5668C136.505 11.1535 137.385 10.9468 138.385 10.9468C139.385 10.9468 140.258 11.1535 141.005 11.5668C141.765 11.9801 142.345 12.5735 142.745 13.3468C143.158 14.1068 143.365 15.0001 143.365 16.0268C143.365 17.0535 143.158 17.9535 142.745 18.7268C142.345 19.5001 141.765 20.0935 141.005 20.5068C140.258 20.9201 139.385 21.1268 138.385 21.1268ZM138.365 19.1868C139.178 19.1868 139.798 18.9201 140.225 18.3868C140.652 17.8535 140.865 17.0668 140.865 16.0268C140.865 15.0001 140.652 14.2201 140.225 13.6868C139.798 13.1401 139.185 12.8668 138.385 12.8668C137.585 12.8668 136.965 13.1401 136.525 13.6868C136.098 14.2201 135.885 15.0001 135.885 16.0268C135.885 17.0668 136.098 17.8535 136.525 18.3868C136.952 18.9201 137.565 19.1868 138.365 19.1868ZM85.28 39.3468V46.1068C84.64 46.4268 83.86 46.6801 82.94 46.8668C82.0333 47.0535 81.1067 47.1468 80.16 47.1468C78.7067 47.1468 77.4467 46.8601 76.38 46.2868C75.3133 45.7001 74.4933 44.8668 73.92 43.7868C73.36 42.6935 73.08 41.4001 73.08 39.9068C73.08 38.4268 73.36 37.1468 73.92 36.0668C74.4933 34.9735 75.3 34.1401 76.34 33.5668C77.3933 32.9801 78.6267 32.6868 80.04 32.6868C81.0267 32.6868 81.9533 32.8335 82.82 33.1268C83.6867 33.4068 84.4067 33.8135 84.98 34.3468L84.12 36.2068C83.4667 35.7001 82.82 35.3401 82.18 35.1268C81.5533 34.9001 80.86 34.7868 80.1 34.7868C78.6467 34.7868 77.5467 35.2201 76.8 36.0868C76.0667 36.9401 75.7 38.2135 75.7 39.9068C75.7 43.3735 77.22 45.1068 80.26 45.1068C81.1667 45.1068 82.0733 44.9801 82.98 44.7268V41.1868H79.94V39.3468H85.28ZM94.408 39.0268L92.948 39.1668C91.2946 39.3401 90.468 40.1801 90.468 41.6868V46.9668H87.968V37.1868H90.348V38.9068C90.8546 37.7335 91.9013 37.0935 93.488 36.9868L94.248 36.9268L94.408 39.0268ZM99.8889 47.1268C98.8889 47.1268 98.0089 46.9201 97.2489 46.5068C96.5022 46.0935 95.9222 45.5001 95.5089 44.7268C95.0956 43.9535 94.8889 43.0535 94.8889 42.0268C94.8889 41.0001 95.0956 40.1068 95.5089 39.3468C95.9222 38.5735 96.5022 37.9801 97.2489 37.5668C98.0089 37.1535 98.8889 36.9468 99.8889 36.9468C100.889 36.9468 101.762 37.1535 102.509 37.5668C103.269 37.9801 103.849 38.5735 104.249 39.3468C104.662 40.1068 104.869 41.0001 104.869 42.0268C104.869 43.0535 104.662 43.9535 104.249 44.7268C103.849 45.5001 103.269 46.0935 102.509 46.5068C101.762 46.9201 100.889 47.1268 99.8889 47.1268ZM99.8689 45.1868C100.682 45.1868 101.302 44.9201 101.729 44.3868C102.156 43.8535 102.369 43.0668 102.369 42.0268C102.369 41.0001 102.156 40.2201 101.729 39.6868C101.302 39.1401 100.689 38.8668 99.8889 38.8668C99.0889 38.8668 98.4689 39.1401 98.0289 39.6868C97.6022 40.2201 97.3889 41.0001 97.3889 42.0268C97.3889 43.0668 97.6022 43.8535 98.0289 44.3868C98.4556 44.9201 99.0689 45.1868 99.8689 45.1868ZM111.393 47.1268C110.366 47.1268 109.473 46.9201 108.713 46.5068C107.966 46.0935 107.393 45.5068 106.993 44.7468C106.593 43.9868 106.393 43.1001 106.393 42.0868C106.393 41.0735 106.599 40.1801 107.013 39.4068C107.439 38.6201 108.039 38.0135 108.813 37.5868C109.586 37.1601 110.479 36.9468 111.493 36.9468C112.186 36.9468 112.859 37.0601 113.513 37.2868C114.179 37.5001 114.713 37.7935 115.113 38.1668L114.393 39.9268C113.979 39.5935 113.539 39.3401 113.073 39.1668C112.619 38.9935 112.166 38.9068 111.713 38.9068C110.846 38.9068 110.173 39.1801 109.693 39.7268C109.213 40.2601 108.973 41.0335 108.973 42.0468C108.973 43.0468 109.213 43.8201 109.693 44.3668C110.173 44.9001 110.846 45.1668 111.713 45.1668C112.166 45.1668 112.619 45.0801 113.073 44.9068C113.539 44.7335 113.979 44.4801 114.393 44.1468L115.113 45.8868C114.686 46.2735 114.139 46.5801 113.473 46.8068C112.806 47.0201 112.113 47.1268 111.393 47.1268ZM125.278 42.5268H118.618C118.698 43.4335 118.972 44.1068 119.438 44.5468C119.905 44.9868 120.572 45.2068 121.438 45.2068C122.518 45.2068 123.505 44.8601 124.398 44.1668L125.118 45.8868C124.665 46.2601 124.092 46.5601 123.398 46.7868C122.718 47.0135 122.032 47.1268 121.338 47.1268C119.738 47.1268 118.472 46.6735 117.538 45.7668C116.618 44.8601 116.158 43.6201 116.158 42.0468C116.158 41.0468 116.358 40.1601 116.758 39.3868C117.158 38.6135 117.718 38.0135 118.438 37.5868C119.172 37.1601 119.998 36.9468 120.918 36.9468C122.265 36.9468 123.325 37.3801 124.098 38.2468C124.885 39.1135 125.278 40.3068 125.278 41.8268V42.5268ZM120.978 38.7068C120.312 38.7068 119.772 38.9201 119.358 39.3468C118.958 39.7735 118.712 40.3868 118.618 41.1868H123.138C123.112 40.3735 122.912 39.7601 122.538 39.3468C122.165 38.9201 121.645 38.7068 120.978 38.7068ZM133.763 39.0268L132.303 39.1668C130.65 39.3401 129.823 40.1801 129.823 41.6868V46.9668H127.323V37.1868H129.703V38.9068C130.21 37.7335 131.257 37.0935 132.843 36.9868L133.603 36.9268L133.763 39.0268ZM142.445 37.2068H144.905L139.025 50.5668H136.505L138.285 46.5868L134.205 37.2068H136.845L139.605 44.1068L142.445 37.2068Z" fill="white"/>
<circle cx="26.5" cy="26.5" r="26.5" fill="#2559BC"/>
<path d="M29.95 33.35C30.5833 33.6167 31.0917 34.125 31.475 34.875L33.15 37.925L29.725 39.475L27.425 35.225C27.0583 34.575 26.4083 34.2417 25.475 34.225C23.8417 34.1917 22.4167 33.825 21.2 33.125C20 32.425 19.075 31.45 18.425 30.2C17.775 28.9333 17.45 27.4583 17.45 25.775C17.45 23.8583 17.8083 22.175 18.525 20.725C19.2417 19.2583 20.2583 18.125 21.575 17.325C22.9083 16.525 24.4417 16.125 26.175 16.125C27.925 16.125 29.4333 16.4667 30.7 17.15C31.9833 17.8167 32.9667 18.7917 33.65 20.075C34.3333 21.3417 34.675 22.85 34.675 24.6C34.675 26.6667 34.2667 28.4583 33.45 29.975C32.6333 31.4917 31.4667 32.6167 29.95 33.35ZM25.9 31.2C27.4167 31.2 28.6083 30.6167 29.475 29.45C30.3417 28.2667 30.775 26.65 30.775 24.6C30.775 22.8667 30.375 21.5333 29.575 20.6C28.7917 19.65 27.675 19.175 26.225 19.175C24.7083 19.175 23.5167 19.7667 22.65 20.95C21.7833 22.1167 21.35 23.725 21.35 25.775C21.35 27.5083 21.7417 28.85 22.525 29.8C23.3083 30.7333 24.4333 31.2 25.9 31.2Z" fill="white"/>
</svg>
