<svg width="145" height="53" viewBox="0 0 145 53" fill="none" xmlns="http://www.w3.org/2000/svg">
<path d="M78.6381 25.1516L76.7051 22.0228C76.3198 21.4117 75.6888 21.1061 74.8119 21.1061C73.4568 21.1061 72.2744 20.8072 71.2647 20.2094C70.255 19.6115 69.4711 18.7745 68.9131 17.6984C68.3551 16.609 68.0761 15.3336 68.0761 13.8722C68.0761 12.3975 68.3551 11.1221 68.9131 10.0459C69.4711 8.96979 70.255 8.13945 71.2647 7.55488C72.2744 6.95703 73.4634 6.65811 74.8318 6.65811C76.2002 6.65811 77.3893 6.95703 78.399 7.55488C79.4087 8.13945 80.1926 8.96979 80.7505 10.0459C81.3085 11.1221 81.5875 12.3908 81.5875 13.8522C81.5875 15.4465 81.2554 16.8149 80.5911 17.9575C79.9401 19.1 79.0367 19.937 77.8809 20.4684C78.4521 20.6544 78.9437 21.0995 79.3556 21.8036L80.8103 24.1153L78.6381 25.1516ZM74.8318 18.914C76.1205 18.914 77.1236 18.469 77.841 17.5788C78.5584 16.6887 78.9171 15.4531 78.9171 13.8722C78.9171 12.2779 78.5584 11.0423 77.841 10.1655C77.1369 9.28865 76.1338 8.85022 74.8318 8.85022C73.5431 8.85022 72.5401 9.28865 71.8227 10.1655C71.1052 11.0423 70.7465 12.2779 70.7465 13.8722C70.7465 15.4531 71.1052 16.6887 71.8227 17.5788C72.5401 18.469 73.5431 18.914 74.8318 18.914ZM83.7828 9.06943V6.63818H86.5727V9.06943H83.7828ZM83.9422 20.9069V11.1619H86.4332V20.9069H83.9422ZM89.0614 20.9069V11.1619H91.4927V12.6565C91.785 12.1251 92.1902 11.7133 92.7083 11.421C93.2265 11.1154 93.8243 10.9626 94.5019 10.9626C95.9633 10.9626 96.9198 11.6003 97.3715 12.8757C97.6771 12.2779 98.1155 11.8129 98.6868 11.4808C99.2581 11.1353 99.9091 10.9626 100.64 10.9626C102.832 10.9626 103.928 12.2978 103.928 14.9682V20.9069H101.437V15.0679C101.437 14.3239 101.311 13.7792 101.058 13.4337C100.819 13.0883 100.407 12.9156 99.8227 12.9156C99.1717 12.9156 98.6602 13.1481 98.2883 13.6131C97.9163 14.0648 97.7303 14.6959 97.7303 15.5063V20.9069H95.2392V15.0679C95.2392 14.3239 95.113 13.7792 94.8606 13.4337C94.6214 13.0883 94.2162 12.9156 93.645 12.9156C92.994 12.9156 92.4825 13.1481 92.1105 13.6131C91.7385 14.0648 91.5525 14.6959 91.5525 15.5063V20.9069H89.0614ZM109.706 21.1061C109.002 21.1061 108.371 20.9733 107.813 20.7076C107.268 20.4286 106.837 20.0566 106.518 19.5916C106.212 19.1266 106.059 18.6018 106.059 18.0173C106.059 17.2998 106.245 16.7352 106.617 16.3233C106.989 15.8982 107.594 15.5926 108.431 15.4066C109.268 15.2206 110.39 15.1276 111.799 15.1276H112.496V14.7092C112.496 14.0449 112.35 13.5666 112.058 13.2743C111.766 12.982 111.274 12.8359 110.583 12.8359C110.038 12.8359 109.48 12.9222 108.909 13.095C108.338 13.2544 107.76 13.5068 107.175 13.8522L106.458 12.1583C106.803 11.9192 107.209 11.7133 107.674 11.5405C108.152 11.3545 108.65 11.2151 109.168 11.1221C109.7 11.0158 110.198 10.9626 110.663 10.9626C112.084 10.9626 113.141 11.2948 113.831 11.959C114.522 12.61 114.868 13.6264 114.868 15.0081V20.9069H112.536V19.3525C112.31 19.8972 111.952 20.3289 111.46 20.6478C110.968 20.9534 110.384 21.1061 109.706 21.1061ZM110.224 19.3923C110.875 19.3923 111.413 19.1665 111.839 18.7147C112.277 18.263 112.496 17.6918 112.496 17.0009V16.5625H111.819C110.57 16.5625 109.7 16.6621 109.208 16.8614C108.73 17.0474 108.491 17.3928 108.491 17.8977C108.491 18.3361 108.643 18.6948 108.949 18.9738C109.255 19.2528 109.68 19.3923 110.224 19.3923ZM117.396 20.9069V11.1619H119.827V12.6765C120.159 12.1185 120.605 11.6933 121.163 11.401C121.734 11.1088 122.372 10.9626 123.076 10.9626C125.374 10.9626 126.523 12.2978 126.523 14.9682V20.9069H124.032V15.0878C124.032 14.3305 123.886 13.7792 123.594 13.4337C123.315 13.0883 122.876 12.9156 122.279 12.9156C121.548 12.9156 120.963 13.1481 120.525 13.6131C120.1 14.0648 119.887 14.6693 119.887 15.4266V20.9069H117.396ZM133.497 21.1061C132.488 21.1061 131.611 20.9002 130.867 20.4884C130.123 20.0765 129.545 19.4919 129.133 18.7347C128.721 17.9641 128.515 17.0607 128.515 16.0244C128.515 14.9881 128.721 14.0914 129.133 13.3341C129.545 12.5768 130.123 11.9923 130.867 11.5804C131.611 11.1686 132.488 10.9626 133.497 10.9626C134.507 10.9626 135.384 11.1686 136.128 11.5804C136.872 11.9923 137.45 12.5768 137.862 13.3341C138.274 14.0914 138.479 14.9881 138.479 16.0244C138.479 17.0607 138.274 17.9641 137.862 18.7347C137.45 19.4919 136.872 20.0765 136.128 20.4884C135.384 20.9002 134.507 21.1061 133.497 21.1061ZM133.497 19.213C134.241 19.213 134.839 18.9472 135.291 18.4158C135.743 17.8711 135.969 17.074 135.969 16.0244C135.969 14.9616 135.743 14.1711 135.291 13.6529C134.839 13.1215 134.241 12.8558 133.497 12.8558C132.753 12.8558 132.156 13.1215 131.704 13.6529C131.252 14.1711 131.026 14.9616 131.026 16.0244C131.026 17.074 131.252 17.8711 131.704 18.4158C132.156 18.9472 132.753 19.213 133.497 19.213ZM75.2902 47.1061C73.7358 47.1061 72.4205 46.8139 71.3444 46.2293C70.2815 45.6447 69.4711 44.8144 68.9131 43.7383C68.3551 42.6621 68.0761 41.3867 68.0761 39.912C68.0761 38.424 68.3618 37.142 68.933 36.0659C69.5043 34.9764 70.328 34.1394 71.4042 33.5549C72.4803 32.957 73.769 32.6581 75.2703 32.6581C76.2534 32.6581 77.1767 32.8042 78.0403 33.0965C78.9039 33.3755 79.6213 33.7675 80.1926 34.2723L79.3356 36.2651C78.7112 35.7736 78.0735 35.4215 77.4225 35.2089C76.7715 34.9964 76.0541 34.8901 75.2703 34.8901C73.7823 34.8901 72.653 35.3219 71.8824 36.1854C71.1252 37.049 70.7465 38.2912 70.7465 39.912C70.7465 41.5461 71.1384 42.7883 71.9223 43.6386C72.7061 44.4889 73.8686 44.914 75.4098 44.914C75.8482 44.914 76.2932 44.8808 76.745 44.8144C77.2099 44.7347 77.6683 44.6217 78.12 44.4756V41.2074H74.8916V39.3142H80.2523V46.0699C79.6013 46.3887 78.8308 46.6411 77.9407 46.8271C77.0505 47.0131 76.167 47.1061 75.2902 47.1061ZM82.9691 46.9069V37.1619H85.4004V38.8757C85.8787 37.7199 86.9017 37.0822 88.4693 36.9626L89.2266 36.9028L89.386 39.0152L87.9512 39.1547C86.3171 39.3142 85.5 40.1512 85.5 41.6657V46.9069H82.9691ZM95.0614 47.1061C94.0517 47.1061 93.1749 46.9002 92.4309 46.4884C91.6869 46.0765 91.109 45.4919 90.6971 44.7347C90.2853 43.9641 90.0793 43.0607 90.0793 42.0244C90.0793 40.9881 90.2853 40.0914 90.6971 39.3341C91.109 38.5768 91.6869 37.9923 92.4309 37.5804C93.1749 37.1686 94.0517 36.9626 95.0614 36.9626C96.0711 36.9626 96.948 37.1686 97.692 37.5804C98.4359 37.9923 99.0139 38.5768 99.4257 39.3341C99.8376 40.0914 100.043 40.9881 100.043 42.0244C100.043 43.0607 99.8376 43.9641 99.4257 44.7347C99.0139 45.4919 98.4359 46.0765 97.692 46.4884C96.948 46.9002 96.0711 47.1061 95.0614 47.1061ZM95.0614 45.213C95.8054 45.213 96.4033 44.9472 96.855 44.4158C97.3067 43.8711 97.5325 43.074 97.5325 42.0244C97.5325 40.9616 97.3067 40.1711 96.855 39.6529C96.4033 39.1215 95.8054 38.8558 95.0614 38.8558C94.3174 38.8558 93.7196 39.1215 93.2679 39.6529C92.8162 40.1711 92.5903 40.9616 92.5903 42.0244C92.5903 43.074 92.8162 43.8711 93.2679 44.4158C93.7196 44.9472 94.3174 45.213 95.0614 45.213ZM106.603 47.1061C105.58 47.1061 104.69 46.9002 103.933 46.4884C103.176 46.0632 102.591 45.4654 102.179 44.6948C101.767 43.9243 101.561 43.0208 101.561 41.9846C101.561 40.9483 101.767 40.0582 102.179 39.3142C102.591 38.5569 103.176 37.979 103.933 37.5804C104.69 37.1686 105.58 36.9626 106.603 36.9626C107.228 36.9626 107.846 37.0623 108.457 37.2616C109.068 37.4608 109.573 37.7398 109.971 38.0985L109.234 39.8323C108.888 39.5267 108.497 39.2942 108.058 39.1348C107.633 38.9754 107.221 38.8957 106.823 38.8957C105.959 38.8957 105.288 39.168 104.81 39.7127C104.345 40.2442 104.112 41.0081 104.112 42.0045C104.112 42.9876 104.345 43.7648 104.81 44.3361C105.288 44.8941 105.959 45.1731 106.823 45.1731C107.208 45.1731 107.62 45.0934 108.058 44.934C108.497 44.7745 108.888 44.5354 109.234 44.2165L109.971 45.9702C109.573 46.3157 109.061 46.5946 108.437 46.8072C107.826 47.0065 107.214 47.1061 106.603 47.1061ZM116.107 47.1061C115.005 47.1061 114.055 46.9002 113.258 46.4884C112.461 46.0765 111.843 45.4919 111.404 44.7347C110.979 43.9774 110.767 43.0806 110.767 42.0443C110.767 41.0346 110.973 40.1512 111.384 39.3939C111.81 38.6366 112.387 38.0454 113.118 37.6203C113.862 37.1818 114.706 36.9626 115.649 36.9626C117.031 36.9626 118.12 37.401 118.917 38.2779C119.728 39.1547 120.133 40.3504 120.133 41.865V42.6023H113.158C113.344 44.3427 114.34 45.213 116.147 45.213C116.692 45.213 117.237 45.1332 117.781 44.9738C118.326 44.8011 118.824 44.5354 119.276 44.1767L119.974 45.8507C119.509 46.2359 118.924 46.5415 118.22 46.7674C117.516 46.9932 116.812 47.1061 116.107 47.1061ZM115.749 38.6565C115.018 38.6565 114.427 38.8824 113.975 39.3341C113.523 39.7858 113.251 40.3969 113.158 41.1675H118.06C118.007 40.3571 117.781 39.7393 117.383 39.3142C116.998 38.8757 116.453 38.6565 115.749 38.6565ZM122.106 46.9069V37.1619H124.537V38.8757C125.015 37.7199 126.038 37.0822 127.606 36.9626L128.363 36.9028L128.523 39.0152L127.088 39.1547C125.454 39.3142 124.637 40.1512 124.637 41.6657V46.9069H122.106ZM131.39 50.494L133.183 46.5083L129.138 37.1619H131.788L134.519 43.9774L137.309 37.1619H139.82L133.961 50.494H131.39Z" fill="#40434A"/>
<ellipse cx="26.405" cy="26.4523" rx="26.405" ry="26.4523" fill="#2559BC"/>
<path d="M29.4976 39.4551L27.6044 35.4695C27.4051 35.0211 27.1311 34.7056 26.7823 34.5229C26.4502 34.3402 25.9354 34.2489 25.2379 34.2489L25.2628 34.224C23.7183 34.1907 22.3649 33.8586 21.2024 33.2275C20.0565 32.5965 19.168 31.7163 18.537 30.587C17.9059 29.4412 17.5904 28.0628 17.5904 26.4519C17.5904 24.4425 17.9723 22.6655 18.7363 21.1211C19.5168 19.56 20.6045 18.3394 21.9995 17.4593C23.3945 16.5791 25.0469 16.139 26.9567 16.139C28.5842 16.139 29.9958 16.4462 31.1915 17.0607C32.4038 17.6751 33.3338 18.5636 33.9814 19.7261C34.6457 20.8886 34.9778 22.2836 34.9778 23.911C34.9778 26.1364 34.5128 28.0794 33.5829 29.7401C32.6695 31.3842 31.3907 32.5965 29.7467 33.377C30.3943 33.6261 30.9008 34.1326 31.2662 34.8965L32.8106 38.2345L29.4976 39.4551ZM25.6863 30.9607C26.7989 30.9607 27.7455 30.6618 28.526 30.0639C29.3232 29.4661 29.9293 28.644 30.3445 27.5978C30.7597 26.5516 30.9673 25.3475 30.9673 23.9858C30.9673 22.4413 30.6019 21.2955 29.8712 20.5481C29.1405 19.8008 28.1441 19.4272 26.882 19.4272C25.7693 19.4272 24.8227 19.7261 24.0422 20.324C23.2616 20.9052 22.6638 21.7189 22.2486 22.7652C21.8334 23.8114 21.6259 25.0237 21.6259 26.4021C21.6259 27.9465 21.9829 29.0924 22.697 29.8397C23.4277 30.587 24.4241 30.9607 25.6863 30.9607Z" fill="white"/>
</svg>
