<svg width="51" height="50" viewBox="0 0 51 50" fill="none" xmlns="http://www.w3.org/2000/svg">
<path d="M24.0675 0H27.6303C31.4435 0 35.7818 1.57997 40.6453 4.73991C44.3131 7.60817 46.971 10.9221 48.6191 14.6816C50.1056 18.2628 50.8489 21.285 50.8489 23.7482V25.8143C50.8489 31.3563 48.5787 36.8498 44.0384 42.2946C38.771 47.4315 32.6553 50 25.6913 50C16.9985 50 9.89719 45.9407 4.38741 37.8221C2.02839 33.4468 0.848877 29.1444 0.848877 24.9149C0.848877 17.9468 3.70879 11.6675 9.42861 6.07681C14.7607 2.0256 19.6403 0 24.0675 0ZM12.5309 21.6578V29.3875C12.5309 33.6007 13.8639 36.4123 16.5299 37.8221C17.7256 38.5027 21.5711 38.7539 28.0665 38.5756C33.0431 38.5756 35.903 38.0327 36.6463 36.947C38.3267 35.602 39.1669 33.3738 39.1669 30.2625V20.3209C39.1669 16.3993 37.7854 13.8308 35.0224 12.6155L33.1804 12.0078L31.3142 11.8619H20.529C16.6834 11.8619 14.1143 13.7417 12.8217 17.5012C12.6278 18.6518 12.5309 20.0373 12.5309 21.6578ZM20.9652 14.244H31.3142C35.0628 14.244 36.9371 16.221 36.9371 20.175V30.7C36.4362 34.3623 34.9093 36.1935 32.3564 36.1935H28.0665C26.063 36.1935 23.9463 36.2421 21.7165 36.3393C18.0003 36.3393 15.8271 35.1564 15.1969 32.7905C15.003 31.4779 14.9061 29.5009 14.9061 26.8595V23.578C14.9061 18.6356 15.3019 16.1643 16.0937 16.1643C16.8854 14.8841 18.5092 14.244 20.9652 14.244ZM31.4596 18.2547C31.8959 19.2432 32.4453 19.7375 33.1077 19.7375C33.7702 19.7375 34.3115 19.2432 34.7316 18.2547C34.5054 17.0556 33.9075 16.456 32.9381 16.456C31.9524 16.7639 31.4596 17.3635 31.4596 18.2547ZM19.0505 25.3768C19.0505 28.5691 20.8763 30.7892 24.528 32.0369H27.4848C31.0234 30.7568 32.7926 28.4881 32.7926 25.2309V24.9149C32.7926 23.0676 31.8555 21.3418 29.9812 19.7375C28.7047 18.8462 27.3798 18.4006 26.0064 18.4006H25.861C22.8072 18.4006 20.6825 19.9806 19.4868 23.1405C19.3252 23.3512 19.1798 24.0966 19.0505 25.3768ZM25.861 20.7584H26.0064C28.1392 20.7584 29.5692 21.9008 30.2963 24.1857C30.3932 24.3153 30.4417 24.6638 30.4417 25.2309C29.9731 28.2936 28.4947 29.825 26.0064 29.825C24.0352 29.825 22.6052 28.8365 21.7165 26.8595C21.5873 26.6975 21.4823 26.2032 21.4015 25.3768C21.7569 22.2978 23.2434 20.7584 25.861 20.7584Z" fill="#3CB89A"/>
</svg>
